#!OML:ASF F:\VICON\USERDATA\INSTALL\rory3\rory3.ASF
:FULLY-SPECIFIED
:DEGREES
1092
root -4.96699 17.3727 3.87194 7.33982 -4.51403 -0.541494
lowerback 16.0555 -1.86623 -3.38592
upperback 4.88853 -2.94186 0.929905
thorax -3.55937 -1.46217 3.44222
lowerneck -14.0013 -9.2198 -13.6861
upperneck 9.91822 -12.2573 16.9633
head 7.30542 -5.26411 6.38393
rclavicle -9.24349e-015 1.15295e-014
rhumerus 25.4023 -32.6794 -48.3674
rradius 83.3184
rwrist 2.06002
rhand -36.3166 2.55197
rfingers 7.12502
rthumb -9.41527 -27.2177
lclavicle -9.24349e-015 1.15295e-014
lhumerus -0.857759 28.7128 53.2786
lradius 78.8177
lwrist 19.9519
lhand -21.9378 24.7372
lfingers 7.12502
lthumb 4.46887 54.67
rfemur -28.7567 2.72144 7.63433
rtibia 35.7568
rfoot -9.46325 -2.81212
rtoes -0.333889
lfemur -25.8818 -6.83044 -8.40824
ltibia 32.3002
lfoot -11.8523 -11.9123
ltoes -15.2741
1093
root -5.05889 17.3607 3.83217 7.63238 -4.07723 -0.615405
lowerback 16.4515 -1.87412 -3.22046
upperback 5.06794 -2.93094 0.98837
thorax -3.58669 -1.45825 3.42208
lowerneck -13.8955 -9.14065 -13.7908
upperneck 9.99065 -12.1351 16.9022
head 7.2917 -5.21739 6.40275
rclavicle -5.82439e-014 1.23246e-014
rhumerus 25.3517 -32.5016 -48.0462
rradius 84.1592
rwrist 2.3133
rhand -36.4608 2.30741
rfingers 7.12502
rthumb -9.55441 -27.456
lclavicle -5.82439e-014 1.23246e-014
lhumerus -0.645854 28.2413 53.5993
lradius 79.6534
lwrist 19.3374
lhand -22.1731 24.4892
lfingers 7.12502
lthumb 4.2416 54.4268
rfemur -29.109 2.26642 8.13233
rtibia 35.858
rfoot -9.89518 -2.98977
rtoes -1.35534
lfemur -26.3503 -7.02644 -7.84881
ltibia 32.0443
lfoot -11.5453 -12.0701
ltoes -15.4098
1094
root -5.1515 17.3509 3.79407 7.94481 -3.67446 -0.622366
lowerback 16.8333 -1.8779 -3.06549
upperback 5.1858 -2.91848 0.98002
thorax -3.67421 -1.4506 3.33809
lowerneck -13.74 -9.08547 -13.8001
upperneck 10.1805 -12.0716 16.751
head 7.30324 -5.201 6.36856
rclavicle -9.24349e-015 -2.78299e-015
rhumerus 24.9757 -32.1639 -47.6752
rradius 85.089
rwrist 2.48291
rhand -36.4675 1.968
rfingers 7.12502
rthumb -9.56089 -27.7951
lclavicle -9.24349e-015 -2.78299e-015
lhumerus -0.573196 27.4865 53.7894
lradius 80.5115
lwrist 18.8946
lhand -22.4359 24.6172
lfingers 7.12502
lthumb 3.98787 54.5596
rfemur -29.4544 1.87829 8.54617
rtibia 35.8991
rfoot -10.2255 -2.86533
rtoes -0.183051
lfemur -26.844 -7.23569 -7.35338
ltibia 31.8029
lfoot -11.149 -12.1883
ltoes -15.1102
1095
root -5.24351 17.3437 3.75914 8.3783 -3.32717 -0.663656
lowerback 16.9934 -1.87148 -2.85659
upperback 5.30618 -2.87815 0.954644
thorax -3.64692 -1.43185 3.18935
lowerneck -13.7044 -9.00102 -13.6649
upperneck 10.5538 -11.9813 16.4582
head 7.37032 -5.16623 6.26453
rclavicle -7.15625e-015 -3.97569e-016
rhumerus 24.5424 -31.7388 -47.4392
rradius 86.0433
rwrist 2.84378
rhand -36.4066 1.70318
rfingers 7.12502
rthumb -9.50211 -28.0626
lclavicle -7.15625e-015 -3.97569e-016
lhumerus -0.665107 26.5917 53.9935
lradius 81.5146
lwrist 18.5934
lhand -22.8168 24.9587
lfingers 7.12502
lthumb 3.62003 54.9077
rfemur -29.9632 1.49784 8.99498
rtibia 35.9659
rfoot -10.4022 -2.6079
rtoes 1.23108
lfemur -27.4348 -7.3002 -6.83134
ltibia 31.5722
lfoot -10.7526 -12.396
ltoes -14.7925
1096
root -5.33541 17.3378 3.7206 8.7947 -2.94882 -0.788317
lowerback 17.195 -1.87551 -2.63118
upperback 5.45561 -2.84485 1.01061
thorax -3.60599 -1.41748 3.1196
lowerneck -13.6925 -8.92296 -13.6074
upperneck 10.9292 -11.8936 16.2417
head 7.45411 -5.12965 6.19853
rclavicle -3.51849e-014 1.19271e-015
rhumerus 24.1185 -31.2043 -47.2178
rradius 87.0396
rwrist 3.30753
rhand -36.3861 1.58811
rfingers 7.12502
rthumb -9.48239 -28.1785
lclavicle -3.51849e-014 1.19271e-015
lhumerus -0.96551 25.7542 54.3327
lradius 82.6208
lwrist 18.1922
lhand -22.8903 25.2237
lfingers 7.12502
lthumb 3.54904 55.1739
rfemur -30.5338 1.1825 9.52304
rtibia 36.1532
rfoot -10.5984 -2.66667
rtoes 1.26999
lfemur -27.9952 -7.45658 -6.18632
ltibia 31.3266
lfoot -10.3407 -12.4912
ltoes -14.9183
1097
root -5.42816 17.3331 3.67692 9.14709 -2.632 -0.76165
lowerback 17.3864 -1.81526 -2.51166
upperback 5.72884 -2.74705 0.994591
thorax -3.43038 -1.3753 3.01678
lowerneck -13.7695 -8.90293 -13.5402
upperneck 11.2097 -11.881 16.1143
head 7.54191 -5.12025 6.14666
rclavicle 1.98785e-015 3.97569e-015
rhumerus 23.4906 -30.7743 -46.9356
rradius 88.1647
rwrist 3.77018
rhand -36.3965 1.25634
rfingers 7.12502
rthumb -9.49239 -28.5099
lclavicle 1.98785e-015 3.97569e-015
lhumerus -1.1114 24.7919 54.8578
lradius 83.7123
lwrist 17.7898
lhand -22.8657 25.2011
lfingers 7.12502
lthumb 3.57281 55.1509
rfemur -31.1517 0.978056 9.83609
rtibia 36.4647
rfoot -10.6976 -2.83084
rtoes 1.07908
lfemur -28.487 -7.66669 -5.71467
ltibia 31.0802
lfoot -10.0149 -12.3421
ltoes -15.6541
1098
root -5.52187 17.3276 3.6261 9.5113 -2.32952 -0.701437
lowerback 17.6731 -1.74697 -2.45296
upperback 5.98843 -2.65101 0.970292
thorax -3.31571 -1.33223 2.94444
lowerneck -13.901 -8.76253 -13.4341
upperneck 11.5748 -11.6944 15.884
head 7.62927 -5.02964 6.07872
rclavicle -3.67752e-014 8.94531e-015
rhumerus 22.6919 -30.2395 -46.5939
rradius 89.3236
rwrist 4.15531
rhand -36.547 0.993908
rfingers 7.12502
rthumb -9.63759 -28.7656
lclavicle -3.67752e-014 8.94531e-015
lhumerus -1.42126 23.6872 55.3847
lradius 84.82
lwrist 17.431
lhand -23.0954 25.1461
lfingers 7.12502
lthumb 3.35092 55.0995
rfemur -31.8766 0.862679 10.0704
rtibia 36.8424
rfoot -10.6382 -2.86722
rtoes 1.64356
lfemur -29.03 -7.77939 -5.29984
ltibia 30.8415
lfoot -9.77941 -12.1948
ltoes -16.8708
1099
root -5.61224 17.3233 3.57453 9.90834 -2.02256 -0.851263
lowerback 18.2827 -1.72688 -2.38498
upperback 5.96421 -2.61438 1.13782
thorax -3.65815 -1.30699 3.10379
lowerneck -13.7301 -8.47941 -13.3942
upperneck 12.0912 -11.3108 15.4545
head 7.67176 -4.87449 5.99237
rclavicle -2.62396e-014 1.72943e-014
rhumerus 21.7524 -29.0703 -46.1166
rradius 90.3947
rwrist 4.46269
rhand -36.7756 0.98534
rfingers 7.12502
rthumb -9.85817 -28.7639
lclavicle -2.62396e-014 1.72943e-014
lhumerus -2.50545 22.4967 55.8147
lradius 86.0383
lwrist 17.127
lhand -23.2809 25.3576
lfingers 7.12502
lthumb 3.17178 55.3138
rfemur -32.6744 0.728774 10.5372
rtibia 37.234
rfoot -10.4412 -2.81924
rtoes 2.32821
lfemur -29.6147 -7.80868 -4.68079
ltibia 30.609
lfoot -9.57771 -12.0595
ltoes -18.2888
1100
root -5.69772 17.3245 3.52919 10.3619 -1.83534 -1.03516
lowerback 18.7238 -1.67699 -2.24185
upperback 5.92881 -2.52177 1.29554
thorax -3.93192 -1.25539 3.19152
lowerneck -13.4739 -8.23874 -13.4434
upperneck 12.6136 -10.9923 15.1158
head 7.72494 -4.75247 5.94403
rclavicle -6.16232e-015 -6.16232e-015
rhumerus 20.7837 -27.6731 -45.8141
rradius 91.3928
rwrist 4.86804
rhand -37.4764 1.14805
rfingers 7.12502
rthumb -10.5342 -28.568
lclavicle -6.16232e-015 -6.16232e-015
lhumerus -3.74244 21.1818 56.3846
lradius 87.234
lwrist 16.859
lhand -23.3564 25.3836
lfingers 7.12502
lthumb 3.09895 55.3408
rfemur -33.5151 0.471088 11.0712
rtibia 37.6057
rfoot -10.3097 -2.71121
rtoes 2.74297
lfemur -30.1776 -7.78812 -4.03786
ltibia 30.3562
lfoot -9.22419 -11.8197
ltoes -18.6052
1101
root -5.78082 17.3275 3.48843 10.8614 -1.74758 -1.07685
lowerback 18.9065 -1.57008 -2.12477
upperback 6.02207 -2.35996 1.34792
thorax -3.94152 -1.17648 3.1517
lowerneck -13.3613 -8.06526 -13.4455
upperneck 13.0721 -10.757 14.8118
head 7.79694 -4.66092 5.88269
rclavicle -3.08116e-015 9.54166e-015
rhumerus 19.9284 -26.3974 -45.6712
rradius 92.2558
rwrist 5.52352
rhand -37.9582 1.19527
rfingers 7.12502
rthumb -10.999 -28.4966
lclavicle -3.08116e-015 9.54166e-015
lhumerus -4.6761 19.7347 57.1064
lradius 88.2327
lwrist 16.5223
lhand -23.4771 25.4236
lfingers 7.12502
lthumb 2.98239 55.3825
rfemur -34.3661 0.162829 11.4742
rtibia 37.9072
rfoot -10.2412 -2.64668
rtoes 2.8163
lfemur -30.7322 -7.83683 -3.5391
ltibia 30.0723
lfoot -8.77265 -11.4676
ltoes -18.2087
1102
root -5.86662 17.3283 3.4466 11.2992 -1.66656 -0.97391
lowerback 19.1601 -1.45595 -2.2374
upperback 6.14776 -2.23175 1.39406
thorax -3.94094 -1.11531 3.2444
lowerneck -13.1958 -7.83578 -13.385
upperneck 13.4085 -10.4387 14.4612
head 7.80198 -4.53523 5.80575
rclavicle -9.64106e-015 7.35503e-015
rhumerus 19.4124 -24.9978 -45.6403
rradius 92.7267
rwrist 6.39843
rhand -37.4227 0.9665
rfingers 7.12502
rthumb -10.4824 -28.7521
lclavicle -9.64106e-015 7.35503e-015
lhumerus -5.5432 18.2524 57.8917
lradius 89.0435
lwrist 16.141
lhand -23.3135 25.4165
lfingers 7.12502
lthumb 3.14036 55.3731
rfemur -35.1374 -0.143615 11.7237
rtibia 38.1625
rfoot -10.0607 -2.51882
rtoes 3.50106
lfemur -31.2029 -7.94364 -3.20407
ltibia 29.7622
lfoot -8.34358 -11.1927
ltoes -17.727
1103
root -5.95261 17.3286 3.40315 11.5999 -1.52088 -0.870542
lowerback 19.5753 -1.38966 -2.38321
upperback 6.30098 -2.17413 1.44961
thorax -3.98789 -1.08837 3.38668
lowerneck -12.9667 -7.60996 -13.3741
upperneck 13.705 -10.1343 14.2006
head 7.7946 -4.41532 5.76655
rclavicle -1.15295e-014 -7.7526e-015
rhumerus 18.9926 -23.3865 -45.7976
rradius 93.0647
rwrist 7.19509
rhand -36.9047 0.757452
rfingers 7.12502
rthumb -9.98271 -28.9858
lclavicle -1.15295e-014 -7.7526e-015
lhumerus -6.56652 16.6752 58.6046
lradius 89.8156
lwrist 15.8879
lhand -23.1252 25.3898
lfingers 7.12502
lthumb 3.32215 55.3437
rfemur -35.7213 -0.385248 11.9454
rtibia 38.3919
rfoot -9.88453 -2.32713
rtoes 4.36954
lfemur -31.5649 -8.08352 -2.89375
ltibia 29.4424
lfoot -7.95891 -10.895
ltoes -17.7416
